<svg version="1.2" xmlns="http://www.w3.org/2000/svg" viewBox="0 0 800 800" width="800" height="800">
	<style>
		.s0 { fill: #11a91d } 
	</style>
	<path id="01" class="s0" aria-label="01"  d="m121.1 481.9v-170q0-54.2 33.1-88.4 33.4-34.6 91.7-34.6 58.3 0 90.9 34.6 32.5 34.5 32.5 88.4v170q0 59.7-31.7 91.4-31.6 31.6-91.7 31.6-58.3 0-91.7-32.5-33.1-32.5-33.1-90.5zm208 0v-170q0-37.2-22.5-60.6-22.3-23.7-63.6-23.7-81.7 0-81.7 84.3v170q0 40.1 22.2 62.4 22.3 22.2 62.7 22.2 82.9 0 82.9-84.6zm159.4 76.4h73.6v-323.1h-58.1q-21.9 0-21.9-19.1 0-19.3 21.9-19.3h78q19.9 0 19.9 19.3v342.2h61.5q22.6 0 22.6 20.5 0 18.2-22.6 18.2h-174.9q-22.5 0-22.5-19.3 0-19.4 22.5-19.4z"/>
</svg>