<svg version="1.2" xmlns="http://www.w3.org/2000/svg" viewBox="0 0 2000 751" width="2000" height="751">
	<style>
		.s0 { fill: #060606 } 
	</style>
	<path id="design" class="s0" aria-label="design"  d="m373.5 165.9c13.8 9.2 22.4 32.2 22.4 61.9v38.2c-6.6-3.3-13.2-7.9-20.4-11.2-14.5-7.3-32.3-11.9-44.8-11.9-36.9 0-65.2 17.1-84.9 42.2-24.4 30.9-35.6 74.4-35.6 116.6 0 41.5 11.9 89.5 41.5 117.2 14.5 13.8 34.3 23.1 59.9 23.1 44.1 0 73.7-27 84.3-59.3 0 43.5 23.7 59.3 48.7 59.3 25.7 0 39.5-15.8 45.4-33-17.8 0-29-13.8-29-40.8v-326.7c-25.6 15.1-57.9 24.4-87.5 24.4zm22.4 183.1v83c0 38.2-26.3 73.1-50.7 73.8-19.1 0.6-32.9-10.6-43.4-26.4-12.5-20.4-21.1-52-24.4-85-3.9-34.9-2-71.1 5.3-95.5 5.9-21.7 17.7-39.5 38.8-42.8 43.5-7.3 74.4 58 74.4 92.9zm263.9-106.1c-83 0-149.5 67.2-149.5 149.5 0 82.4 66.5 149.6 149.5 149.6 34.8 0 73.7-16.5 99.4-39.6l-6.6-7.9c-46.8 27-92.2 15.8-126.4-12.5-31.6-26.3-59.3-74.4-2-86.3 17.8-3.2 40.2-7.9 61.9-11.8 36.2-5.9 83.6-4 83.6-52.1 0-56-60.6-88.9-109.9-88.9zm-68.5 31.6c24.4-13.8 57.3-8.5 81.6 7.3 41.5 27.7 48.1 72.5-10.5 85-37.5 7.9-88.2 17.8-79.7 63.2-7.9-16.5-17.1-37.5-21.7-69.8-5.2-38.9 5.9-71.2 30.3-85.7zm402.3-27.6c-12.5 16.5-57.3-3.3-91.5-4-18.4 0-38.2 1.4-54.6 9.3-16.5 8.5-30.3 23-31.7 45.4-1.9 27 17.8 53.4 42.8 68.5 28.4 17.2 57.3 32.3 81.7 50.8 21.7 16.4 30.9 42.8 26.3 65.2-4.6 27-25 50-55.3 50-36.2 0-54-27.7-55.3-50.7-1.9-21.7 10.6-42.8 34.9-45.5-8.6-24.3-30.3-32.2-50-28.3-22.4 4-43.5 23.7-44.1 52-0.7 22.4 12.5 46.1 30.3 59.3 23 17.1 56.6 23.1 84.9 23.1 65.8 0 104.6-44.8 106.6-92.9 1.3-41.5-19.7-69.8-52-91.6-17.7-11.8-45.4-27-65.8-41.5-15.1-10.5-40.2-31.6-27-52 5.3-7.9 15.2-11.2 25.7-11.2 40.1 0.7 86.9 67.2 104.6 98.8zm78.4 82.4v152.7c0 44.2 23.7 60 48.7 60 25.1 0 39.5-15.8 44.8-32.9-17.8 0-28.3-13.9-28.3-40.9v-225.2c-25.7 15.1-58.6 24.3-87.6 24.3 13.2 9.3 22.4 32.3 22.4 62zm72.5-150.3c0-20.4-17.8-37.5-40.2-37.5-21.7 0-39.5 17.1-39.5 37.6 0 20.4 17.8 37.5 39.5 37.5 22.4 0 40.2-17.1 40.2-37.6zm340.8 213.5c0-46.8-21.8-88.3-54.7-115.3 10.6-21.1 40.8-32.3 58-7.9 31.6-25 11.8-56.6-16.5-56.6-13.2 0.6-29 7.9-41.5 27.6-5.9 8.6-9.8 17.8-12.5 27.7-23.7-15.8-52-25-82.3-25-82.2 0-149.4 67.2-149.4 149.5 0 63.2 39.5 117.3 94.8 139-10.6 27.7-27.7 32.9-59.9 32.9l-9.9 28.4c-13.8 41.5 11.2 77.7 52 77.7 29.6 0 45.4-13.2 63.2-32.3 15.1-15.8 28.9-33.6 45.4-48.1 13.8-12.5 24.4-15.1 36.2-15.1 14.5 0 25.7 11.8 25.7 26.3 0 14.5-14.5 25.7-25.7 25.7-11.8 0-15.8-3.9-20.4-9.8 1.3 29.6 25.7 53.3 56.6 53.3 31 0 56.6-27.7 56.6-56.6 0-19.1-7.9-37.6-22.4-49.4-14.4-11.9-30.9-17.2-48-16.5-25 0.6-50.7 13.2-69.8 30.3-11.8 10.5-23.7 23-34.2 34.9-27.7 30.3-63.2 15.1-46.1-32.9l15.2-43.5c13.1 3.3 26.3 5.2 40.1 5.2 82.3 0 149.5-66.5 149.5-149.5zm-79-40.8c38.1 65.2 36.8 136.3-2 158.7-39.5 23.1-101.4-11.8-138.9-77.1-37.5-65.2-36.9-136.3 2.6-158.7 38.8-22.4 100.7 11.8 138.3 77.1zm121.5 190.3c38.2 0 72.4 0 110 0-13.2-9.8-22.4-32.9-22.4-61.9v-111.3c0-21.7 4.6-44.8 15.8-61.3 9.2-14.5 23-21.7 36.2-21.7 19.1 0 36.8 13.8 36.8 39.5v156.8c0 44.1 23.1 60 48.7 60 25 0 38.9-15.8 44.8-33-17.8 0-28.3-14.5-28.3-41.5v-152.8c0-40.2-27-71.8-68.5-71.8-42.1 0-72.4 28.3-85.5 66.5v-66.5c-25.7 15.1-58 24.3-87.6 24.3 13.2 9.3 22.4 32.3 22.4 62 0 83.6 0 66.5 0 150.8 0 29-9.2 52-22.4 61.9z"/>
</svg>